<?xml version="1.0" encoding="UTF-8"?>
<svg width="272px" height="185px" viewBox="0 0 272 185" version="1.1" xmlns="http://www.w3.org/2000/svg" xmlns:xlink="http://www.w3.org/1999/xlink">
    <title>Group</title>
    <g id="Page-2" stroke="none" stroke-width="1" fill="none" fill-rule="evenodd">
        <g id="Group">
            <polygon id="Path" fill="#E22004" points="0 0 0 185 272 185 272 0"></polygon>
            <path d="M189.356897,30.2310811 C176.233183,40.6673589 169.449509,46.3216775 169.005873,47.1940367 C168.34042,48.5025755 168.533627,48.738296 169.005873,49.9572291 C169.320704,50.7698512 169.855436,51.4473907 170.610069,51.9898478 L92.1344749,151.127131 L94.737106,153.548263 L172.969446,53.3704289 L174.639711,53.9277986 C175.840416,54.0854887 176.789099,54.0854887 177.48576,53.9277986 C178.182422,53.7701085 182.139468,45.8712027 189.356897,30.2310811 Z" id="Path-4" stroke="#000000" stroke-width="0.5" fill="#FFFFFF"></path>
            <path d="M83.1298593,33 C88.0764209,45.7321159 90.8062876,52.530886 91.3194592,53.3963102 C91.8326309,54.2617345 92.4102531,54.9750448 93.0523258,55.5362413 C93.7482377,56.202671 94.5525096,56.6134383 95.4651416,56.7685432 C96.8340895,57.0012006 96.0736422,56.9284647 97.1741929,56.9284647 C97.9078935,56.9284647 98.6183809,56.8751575 99.3056554,56.7685432 L174.400799,153.548263 L176.98438,153.548263 L176.98438,151.134758 L102.34811,55.2797698 C103.820914,54.0025243 104.667223,53.1977649 104.887036,52.8654915 C105.216755,52.3670814 105.110621,51.6536879 104.887036,51.4418815 C104.737979,51.3006772 97.4855868,45.1533834 83.1298593,33 Z" id="Path-3" stroke="#000000" stroke-width="0.5" fill="#FFFFFF"></path>
            <path d="M134.644596,34 C113.548199,50.7103147 103,71.0200448 103,94.9291901 C103,130.792908 125.692552,158.242973 134.800394,162.129882 C135.862475,162.129882 135.502774,162.301493 136.303181,161.702747 C146.229529,154.277325 166.600788,135.061419 166.600788,98.5965245 C166.600788,72.6136202 155.948724,51.0814454 134.644596,34 Z" id="Path-2" stroke="#000000" stroke-width="0.5" fill="#FFFFFF"></path>
            <rect id="Rectangle" fill="#000000" x="126" y="48" width="5" height="45"></rect>
            <rect id="Rectangle" fill="#000000" x="139" y="48" width="5" height="45"></rect>
            <rect id="Rectangle" fill="#000000" x="139" y="102" width="5" height="45"></rect>
            <rect id="Rectangle" fill="#000000" x="126" y="102" width="5" height="45"></rect>
            <circle id="Oval" fill="#000000" cx="135" cy="98" r="4"></circle>
        </g>
    </g>
</svg>