<svg xmlns="http://www.w3.org/2000/svg" xmlns:xlink="http://www.w3.org/1999/xlink" width="900" height="600"><defs><clipPath id="b" clipPathUnits="userSpaceOnUse"><path fill="none" stroke="#000" d="M-5-5h910v610H-5Zm905 5L0 600h900z" class="powerclip"/></clipPath><clipPath id="a"><path d="M0 0h72v48H0z"/></clipPath><path id="c" stroke-miterlimit="10" d="M-1 55.4256258h2V-38c2-2 2-5 2-8 0-2 0-10-3-18.6632301C-3-56-3-48-3-46c0 3 0 6 2 8z" transform="rotate(30)"/></defs><path fill="#1eb53a" d="M0 600V0h900z"/><path fill="#00a3dd" d="M900 0v600H0Z"/><g fill="none" clip-path="url(#a)" transform="scale(12.5)"><path stroke="#fcd116" stroke-width="19" d="M0 48 72 0"/><path stroke="#000" stroke-width="13" d="M0 48 72 0"/></g><g clip-path="url(#b)"><path fill="#fff" d="M0 0h900v600H0Z"/><path d="M0 0h900v180H0Z"/><path fill="#b00" d="M0 210h900v180H0Z"/><path fill="#060" d="M0 420h900v180H0Z"/><g transform="matrix(3.75 0 0 3.75 450 300)"><g id="d"><use xlink:href="#c"/><use xlink:href="#c" fill="#fff"/></g><use xlink:href="#d" transform="scale(-1 1)"/><path fill="#b00" d="M-19 24c3 8 13 24 19 24s16-16 19-24v-48C16-32 6-48 0-48s-16 16-19 24z"/><path id="e" fill="#000" d="M19 24c3-8 5-16 5-24s-2-16-5-24c-3 8-5 16-5 24s2 16 5 24z"/><use xlink:href="#e" transform="scale(-1 1)"/><g fill="#fff"><ellipse rx="4" ry="6"/><path id="f" d="M1 5.85s4 8 4 21-4 21-4 21z"/><use xlink:href="#f" transform="scale(-1)"/><use xlink:href="#f" transform="scale(-1 1)"/><use xlink:href="#f" transform="scale(1 -1)"/></g></g></g></svg>