<svg xmlns="http://www.w3.org/2000/svg" width="1600" height="800" viewBox="0 0 1600 800" version="1.1"><path d="M 0 400.002 L 0 508.001 800.250 507.751 L 1600.500 507.500 1600.754 399.500 L 1601.009 291.500 800.504 291.751 L 0 292.002 0 400.002 M 0.482 400 C 0.482 459.675, 0.603 484.087, 0.750 454.250 C 0.897 424.412, 0.897 375.587, 0.750 345.750 C 0.603 315.912, 0.482 340.325, 0.482 400" stroke="none" fill="#f7be24" fill-rule="evenodd"/><path d="M 0 283.002 L 0 291.001 800.250 290.751 L 1600.500 290.500 1600.786 282.500 L 1601.073 274.500 800.536 274.751 L 0 275.002 0 283.002 M 0 517.002 L 0 525.001 800.250 524.751 L 1600.500 524.500 1600.786 516.500 L 1601.073 508.500 800.536 508.751 L 0 509.002 0 517.002" stroke="none" fill="#db2017" fill-rule="evenodd"/><path d="M -0 134.501 L -0 269.001 800.250 268.751 L 1600.500 268.500 1600.754 134.250 L 1601.007 -0 800.504 -0 L 0 0 -0 134.501 M 0.486 135 C 0.486 208.975, 0.605 239.237, 0.750 202.250 C 0.895 165.262, 0.895 104.737, 0.750 67.750 C 0.605 30.762, 0.486 61.025, 0.486 135 M 183.500 65.570 C 179.650 66.416, 172.247 69.163, 167.049 71.675 C 159.110 75.510, 156.209 77.629, 148.919 84.919 C 141.629 92.209, 139.510 95.110, 135.675 103.049 C 124.994 125.156, 125.736 149.377, 137.724 169.993 C 142.336 177.923, 154.560 190.327, 162.191 194.821 C 175.288 202.532, 192.777 206.192, 206.954 204.187 C 215.715 202.948, 227.185 199.347, 231.908 196.353 L 234.831 194.500 223.665 194.500 C 209.847 194.500, 201.054 191.931, 190.335 184.761 C 174.439 174.129, 164.981 157.737, 163.417 138.107 C 161.562 114.831, 175.813 90.355, 197.154 80.165 C 207.280 75.330, 213.253 74.013, 225.299 73.958 L 234.500 73.916 231 71.983 C 218.730 65.207, 197.927 62.398, 183.500 65.570 M 328.233 120.500 L 324.967 131 313.329 131 L 301.691 131 310.096 137.061 C 314.718 140.394, 318.873 143.490, 319.330 143.941 C 319.786 144.391, 318.742 149.357, 317.008 154.975 C 315.274 160.593, 314.003 165.336, 314.182 165.516 C 314.362 165.695, 318.456 162.947, 323.281 159.409 L 332.052 152.977 340.776 159.399 C 345.574 162.932, 349.657 165.668, 349.849 165.479 C 350.041 165.290, 348.772 160.547, 347.029 154.938 C 345.287 149.328, 344.230 144.402, 344.680 143.989 C 345.131 143.577, 349.292 140.485, 353.927 137.119 L 362.354 131 350.691 131 L 339.027 131 335.813 120.500 C 334.046 114.725, 332.352 110, 332.050 110 C 331.747 110, 330.030 114.725, 328.233 120.500 M 393.811 120.356 L 390.517 130.941 379.149 131.220 L 367.782 131.500 376.086 137.500 C 380.653 140.800, 384.751 143.751, 385.193 144.058 C 385.635 144.365, 384.426 149.281, 382.506 154.982 C 380.586 160.684, 379.165 165.498, 379.348 165.681 C 379.662 165.995, 382.174 164.296, 393.096 156.385 L 397.692 153.056 406.540 159.501 C 411.406 163.046, 415.508 165.825, 415.656 165.677 C 415.804 165.530, 414.408 160.735, 412.554 155.022 L 409.184 144.635 418.310 138.067 L 427.436 131.500 416.055 131 L 404.674 130.500 401.360 120.606 C 399.537 115.164, 397.834 110.500, 397.575 110.242 C 397.316 109.983, 395.622 114.534, 393.811 120.356 M 298.446 149.438 C 298.004 150.504, 296.442 155.229, 294.975 159.938 L 292.307 168.500 280.537 168.783 L 268.768 169.065 277.884 175.631 C 282.898 179.243, 287 182.743, 287 183.411 C 287 184.079, 285.645 188.633, 283.990 193.531 C 282.334 198.429, 281.101 202.804, 281.251 203.252 C 281.400 203.701, 285.509 201.164, 290.381 197.615 L 299.239 191.161 308.112 197.581 C 312.991 201.111, 317.180 204, 317.419 204 C 317.659 204, 316.256 199.224, 314.301 193.387 C 312.267 187.314, 311.146 182.502, 311.679 182.137 C 312.191 181.787, 316.347 178.800, 320.914 175.500 L 329.218 169.500 317.815 169.220 L 306.412 168.940 302.831 158.220 C 300.077 149.976, 299.064 147.948, 298.446 149.438 M 361.011 158.467 L 357.626 168.940 346.242 169.220 L 334.858 169.500 343.929 175.953 C 348.918 179.502, 353 182.676, 353 183.006 C 353 183.337, 351.455 188.195, 349.566 193.804 C 347.678 199.412, 346.386 204, 346.695 204 C 347.005 204, 351.211 201.110, 356.043 197.577 L 364.827 191.154 373.607 197.550 C 378.436 201.068, 382.572 203.762, 382.797 203.536 C 383.023 203.311, 381.773 198.822, 380.021 193.562 C 378.268 188.301, 376.984 183.554, 377.167 183.011 C 377.350 182.469, 381.504 179.109, 386.397 175.545 L 395.294 169.066 383.561 168.783 L 371.827 168.500 368.814 159 C 367.157 153.775, 365.485 149.161, 365.098 148.748 C 364.712 148.334, 362.872 152.708, 361.011 158.467 M 426.753 158.250 L 423.339 168.500 411.920 169 L 400.500 169.500 409.250 175.818 C 414.491 179.602, 418 182.836, 418 183.881 C 418 184.840, 416.652 189.612, 415.005 194.484 C 413.358 199.357, 412.161 203.494, 412.345 203.678 C 412.528 203.862, 416.679 201.122, 421.569 197.589 L 430.459 191.167 435.479 194.777 C 438.241 196.762, 442.140 199.650, 444.144 201.193 C 446.148 202.737, 448.020 204, 448.303 204 C 448.587 204, 447.305 199.177, 445.454 193.281 C 443.603 187.386, 442.448 182.324, 442.886 182.031 C 443.325 181.739, 447.412 178.800, 451.970 175.500 L 460.257 169.500 448.778 169.220 L 437.299 168.939 434.084 158.470 C 432.316 152.711, 430.711 148, 430.518 148 C 430.325 148, 428.630 152.613, 426.753 158.250" stroke="none" fill="#008fb8" fill-rule="evenodd"/><path d="M 183.500 65.570 C 179.650 66.416, 172.247 69.163, 167.049 71.675 C 159.110 75.510, 156.209 77.629, 148.919 84.919 C 141.629 92.209, 139.510 95.110, 135.675 103.049 C 124.994 125.156, 125.736 149.377, 137.724 169.993 C 142.336 177.923, 154.560 190.327, 162.191 194.821 C 175.288 202.532, 192.777 206.192, 206.954 204.187 C 215.715 202.948, 227.185 199.347, 231.908 196.353 L 234.831 194.500 223.665 194.500 C 209.847 194.500, 201.054 191.931, 190.335 184.761 C 174.439 174.129, 164.981 157.737, 163.417 138.107 C 161.562 114.831, 175.813 90.355, 197.154 80.165 C 207.280 75.330, 213.253 74.013, 225.299 73.958 L 234.500 73.916 231 71.983 C 218.730 65.207, 197.927 62.398, 183.500 65.570 M 328.233 120.500 L 324.967 131 313.329 131 L 301.691 131 310.096 137.061 C 314.718 140.394, 318.873 143.490, 319.330 143.941 C 319.786 144.391, 318.742 149.357, 317.008 154.975 C 315.274 160.593, 314.003 165.336, 314.182 165.516 C 314.362 165.695, 318.456 162.947, 323.281 159.409 L 332.052 152.977 340.776 159.399 C 345.574 162.932, 349.657 165.668, 349.849 165.479 C 350.041 165.290, 348.772 160.547, 347.029 154.938 C 345.287 149.328, 344.230 144.402, 344.680 143.989 C 345.131 143.577, 349.292 140.485, 353.927 137.119 L 362.354 131 350.691 131 L 339.027 131 335.813 120.500 C 334.046 114.725, 332.352 110, 332.050 110 C 331.747 110, 330.030 114.725, 328.233 120.500 M 393.811 120.356 L 390.517 130.941 379.149 131.220 L 367.782 131.500 376.086 137.500 C 380.653 140.800, 384.751 143.751, 385.193 144.058 C 385.635 144.365, 384.426 149.281, 382.506 154.982 C 380.586 160.684, 379.165 165.498, 379.348 165.681 C 379.662 165.995, 382.174 164.296, 393.096 156.385 L 397.692 153.056 406.540 159.501 C 411.406 163.046, 415.508 165.825, 415.656 165.677 C 415.804 165.530, 414.408 160.735, 412.554 155.022 L 409.184 144.635 418.310 138.067 L 427.436 131.500 416.055 131 L 404.674 130.500 401.360 120.606 C 399.537 115.164, 397.834 110.500, 397.575 110.242 C 397.316 109.983, 395.622 114.534, 393.811 120.356 M 298.446 149.438 C 298.004 150.504, 296.442 155.229, 294.975 159.938 L 292.307 168.500 280.537 168.783 L 268.768 169.065 277.884 175.631 C 282.898 179.243, 287 182.743, 287 183.411 C 287 184.079, 285.645 188.633, 283.990 193.531 C 282.334 198.429, 281.101 202.804, 281.251 203.252 C 281.400 203.701, 285.509 201.164, 290.381 197.615 L 299.239 191.161 308.112 197.581 C 312.991 201.111, 317.180 204, 317.419 204 C 317.659 204, 316.256 199.224, 314.301 193.387 C 312.267 187.314, 311.146 182.502, 311.679 182.137 C 312.191 181.787, 316.347 178.800, 320.914 175.500 L 329.218 169.500 317.815 169.220 L 306.412 168.940 302.831 158.220 C 300.077 149.976, 299.064 147.948, 298.446 149.438 M 361.011 158.467 L 357.626 168.940 346.242 169.220 L 334.858 169.500 343.929 175.953 C 348.918 179.502, 353 182.676, 353 183.006 C 353 183.337, 351.455 188.195, 349.566 193.804 C 347.678 199.412, 346.386 204, 346.695 204 C 347.005 204, 351.211 201.110, 356.043 197.577 L 364.827 191.154 373.607 197.550 C 378.436 201.068, 382.572 203.762, 382.797 203.536 C 383.023 203.311, 381.773 198.822, 380.021 193.562 C 378.268 188.301, 376.984 183.554, 377.167 183.011 C 377.350 182.469, 381.504 179.109, 386.397 175.545 L 395.294 169.066 383.561 168.783 L 371.827 168.500 368.814 159 C 367.157 153.775, 365.485 149.161, 365.098 148.748 C 364.712 148.334, 362.872 152.708, 361.011 158.467 M 426.753 158.250 L 423.339 168.500 411.920 169 L 400.500 169.500 409.250 175.818 C 414.491 179.602, 418 182.836, 418 183.881 C 418 184.840, 416.652 189.612, 415.005 194.484 C 413.358 199.357, 412.161 203.494, 412.345 203.678 C 412.528 203.862, 416.679 201.122, 421.569 197.589 L 430.459 191.167 435.479 194.777 C 438.241 196.762, 442.140 199.650, 444.144 201.193 C 446.148 202.737, 448.020 204, 448.303 204 C 448.587 204, 447.305 199.177, 445.454 193.281 C 443.603 187.386, 442.448 182.324, 442.886 182.031 C 443.325 181.739, 447.412 178.800, 451.970 175.500 L 460.257 169.500 448.778 169.220 L 437.299 168.939 434.084 158.470 C 432.316 152.711, 430.711 148, 430.518 148 C 430.325 148, 428.630 152.613, 426.753 158.250 M -0 272.002 L -0 275.001 800.250 274.751 L 1600.500 274.500 1600.795 271.500 L 1601.089 268.500 800.545 268.751 L 0 269.002 -0 272.002 M -0 528.002 L -0 531.001 800.250 530.751 L 1600.500 530.500 1600.795 527.500 L 1601.089 524.500 800.545 524.751 L 0 525.002 -0 528.002" stroke="none" fill="#ffffff" fill-rule="evenodd"/><path d="" stroke="none" fill="#1a9d37" fill-rule="evenodd"/><path d="M -0 665.502 L -0 800.001 800.250 799.751 L 1600.500 799.500 1600.754 665 L 1601.007 530.500 800.504 530.751 L 0 531.002 -0 665.502 M 0.486 665.500 C 0.486 739.750, 0.605 770.273, 0.750 733.328 C 0.895 696.383, 0.895 635.633, 0.750 598.328 C 0.605 561.023, 0.486 591.250, 0.486 665.500" stroke="none" fill="#1c9c34" fill-rule="evenodd"/><path d="M 799.449 291.751 C 1239.422 291.888, 1599.737 291.663, 1600.149 291.251 C 1600.562 290.838, 1240.585 290.725, 800.200 291 L -0.500 291.500 799.449 291.751 M 799.449 508.751 C 1239.422 508.888, 1599.737 508.663, 1600.149 508.251 C 1600.562 507.838, 1240.585 507.725, 800.200 508 L -0.500 508.500 799.449 508.751" stroke="none" fill="#f1ae31" fill-rule="evenodd"/></svg>