<?xml version="1.0" encoding="UTF-8" standalone="no"?>
<svg
    xmlns:dc="http://purl.org/dc/elements/1.1/"
    xmlns:cc="http://creativecommons.org/ns#"
    xmlns:rdf="http://www.w3.org/1999/02/22-rdf-syntax-ns#"
    xmlns:svg="http://www.w3.org/2000/svg"
    xmlns="http://www.w3.org/2000/svg"
    xmlns:xlink="http://www.w3.org/1999/xlink"
    width="900"
    height="600"
    version="1.1"
    id="svg869">
    <metadata
        id="metadata873">
        <rdf:RDF>
            <cc:Work
                rdf:about="">
                <dc:format>image/svg+xml</dc:format>
                <dc:type
                    rdf:resource="http://purl.org/dc/dcmitype/StillImage" />
                <dc:title></dc:title>
            </cc:Work>
        </rdf:RDF>
    </metadata>
    <defs
        id="defs834">
        <path
            id="spearshape"
            d="M-1,55.4256258422h2V-38C3,-40 3,-43 3,-46C3,-48 3,-56 0,-64.6632301492C-3,-56 -3,-48 -3,-46C-3,-43 -3,-40 -1,-38z"
            stroke-miterlimit="10"
            transform="rotate(30)" />
        <!-- 32*sqrt(3), -112/sqrt(3)-->
        <clipPath
            clipPathUnits="userSpaceOnUse"
            id="clipPath968">
            <path
                style="display:none;fill:none;stroke:#000000;stroke-width:1px;stroke-linecap:butt;stroke-linejoin:miter;stroke-opacity:1"
                d="M 900,0 0,600 h 900 z"
                id="path970" />
            <path
                id="lpe_path-effect972"
                style="fill:none;stroke:#000000;stroke-width:1px;stroke-linecap:butt;stroke-linejoin:miter;stroke-opacity:1"
                class="powerclip"
                d="M -5,-5 H 905 V 605 H -5 Z M 900,0 0,600 h 900 z" />
        </clipPath>
        <clipPath
            id="c">
            <path
                d="m0 0h72v48H0z"
                id="path978" />
        </clipPath>
    </defs>
    <g
        id="g1006"
        transform="scale(12.5)">
        <path
            fill="#1eb53a"
            d="M 0,48 V 0 h 72 z"
            id="path983" />
        <path
            fill="#00a3dd"
            d="M 72,0 V 48 H 0 Z"
            id="path985" />
        <g
            clip-path="url(#c)"
            id="g991">
            <path
                fill="none"
                stroke="#fcd116"
                stroke-width="19"
                d="M 0,48 72,0"
                id="path987" />
            <path
                fill="none"
                stroke="#000000"
                stroke-width="13"
                d="M 0,48 72,0"
                id="path989" />
        </g>
    </g>
    <g
        id="g895"
        clip-path="url(#clipPath968)">
        <path
            width="900"
            height="600"
            fill="#ffffff"
            id="rect836"
            d="M 0,0 H 900 V 600 H 0 Z"
            x="0"
            y="0" />
        <path
            width="900"
            height="180"
            fill="#000000"
            id="rect838"
            d="M 0,0 H 900 V 180 H 0 Z"
            x="0"
            y="0" />
        <path
            width="900"
            height="180"
            y="210"
            fill="#bb0000"
            id="rect840"
            d="M 0,210 H 900 V 390 H 0 Z"
            x="0" />
        <path
            width="900"
            height="180"
            y="420"
            fill="#006600"
            id="rect842"
            d="M 0,420 H 900 V 600 H 0 Z"
            x="0" />
        <g
            transform="translate(450,300) scale(3.75)"
            id="g867">
            <g
                id="spear">
                <use
                    xlink:href="#spearshape"
                    fill="#000"
                    id="use844" />
                <use
                    xlink:href="#spearshape"
                    fill="#fff"
                    id="use846" />
            </g>
            <use
                xlink:href="#spear"
                transform="scale(-1,1)"
                id="use849" />
            <path
                d="m -19,24 c 3,8 13,24 19,24 6,0 16,-16 19,-24 V -24 C 16,-32 6,-48 0,-48 c -6,0 -16,16 -19,24 z"
                fill="#b00"
                id="path851" />
            <path
                id="deco_r"
                d="m 19,24 c 3,-8 5,-16 5,-24 0,-8 -2,-16 -5,-24 -3,8 -5,16 -5,24 0,8 2,16 5,24 z"
                fill="#000" />
            <use
                xlink:href="#deco_r"
                transform="scale(-1,1)"
                id="use854" />
            <g
                fill="#fff"
                id="g865">
                <ellipse
                    rx="4"
                    ry="6"
                    id="ellipse856"
                    d="M 4,0 A 4,6 0 0 1 0,6 4,6 0 0 1 -4,0 4,6 0 0 1 0,-6 4,6 0 0 1 4,0 Z" />
                <path
                    id="deco_br"
                    d="m 1,5.85 c 0,0 4,8 4,21 0,13 -4,21 -4,21 z" />
                <use
                    xlink:href="#deco_br"
                    transform="scale(-1)"
                    id="use859" />
                <use
                    xlink:href="#deco_br"
                    transform="scale(-1,1)"
                    id="use861" />
                <use
                    xlink:href="#deco_br"
                    transform="scale(1,-1)"
                    id="use863" />
            </g>
        </g>
    </g>
</svg>
